<svg xmlns="http://www.w3.org/2000/svg" xmlns:xlink="http://www.w3.org/1999/xlink" width="1080" zoomAndPan="magnify" viewBox="0 0 810 809.999993" height="1080" preserveAspectRatio="xMidYMid meet" version="1.0"><defs><filter x="0%" y="0%" width="100%" height="100%" id="6ce02e9021"><feColorMatrix values="0 0 0 0 1 0 0 0 0 1 0 0 0 0 1 0 0 0 1 0" color-interpolation-filters="sRGB"/></filter><g/><mask id="50832d7e4c"><g filter="url(#6ce02e9021)"><rect x="-81" width="972" fill="#000000" y="-80.999999" height="971.999992" fill-opacity="0.4"/></g></mask><clipPath id="3b2b2940d1"><path d="M 0.121094 0.679688 L 695.878906 0.679688 L 695.878906 177 L 0.121094 177 Z M 0.121094 0.679688 " clip-rule="nonzero"/></clipPath><clipPath id="b6a49749fe"><rect x="0" width="696" y="0" height="194"/></clipPath><mask id="046e6f41cf"><g filter="url(#6ce02e9021)"><rect x="-81" width="972" fill="#000000" y="-80.999999" height="971.999992" fill-opacity="0.698"/></g></mask><clipPath id="e0f551bfde"><path d="M 0.359375 0.679688 L 696.121094 0.679688 L 696.121094 177 L 0.359375 177 Z M 0.359375 0.679688 " clip-rule="nonzero"/></clipPath><clipPath id="b4718310bb"><rect x="0" width="697" y="0" height="194"/></clipPath></defs><path stroke-linecap="butt" transform="matrix(1.09704, 0, 0, 1.09704, 58.764478, 212.462001)" fill="none" stroke-linejoin="miter" d="M 83.631595 104.000439 L 130.187964 -22.059609 L 97.201486 -22.059609 L 67.138356 68.450245 L 60.825206 -22.059609 L 28.038128 -22.059609 L 41.611579 104.000439 Z M 183.356584 -22.059609 L 152.620478 -22.059609 L 136.169968 104.000439 L 166.866905 104.000439 Z M 240.570177 53.260228 C 257.693663 55.510601 260.770122 60.52053 260.100707 66.83368 L 259.940475 68.450245 C 259.310228 74.606724 254.613643 79.773324 244.120212 79.773324 L 242.503646 79.773324 C 232.006654 79.773324 227.310069 74.250653 229.086866 60.363858 L 198.389929 60.363858 L 198.037418 62.966742 C 194.327151 92.203785 210.186583 106.247252 240.88352 106.247252 C 270.594139 106.247252 288.3906 93.663679 290.993484 69.910139 L 291.310388 66.990352 C 294.030775 42.923468 282.07745 32.230637 255.087219 28.52037 C 238.437308 26.273558 235.716921 21.893876 236.347167 15.107151 L 236.503839 13.490585 C 237.176814 7.216603 242.343414 2.203114 251.22028 2.203114 L 252.840406 2.203114 C 264.163485 2.203114 267.400176 8.98984 265.427539 23.193538 L 296.160084 23.193538 L 296.633659 19.3266 C 300.187254 -9.433308 287.087378 -24.309982 255.599962 -24.309982 C 224.076938 -24.309982 207.740371 -9.119965 205.333326 13.173682 L 204.980815 16.093469 C 202.417099 38.85713 213.579946 49.710194 240.570177 53.260228 Z M 358.212691 106.247252 C 394.745643 106.247252 406.189786 90.426988 409.583149 63.913892 L 420.906228 -22.059609 L 390.20929 -22.059609 L 379.042883 63.123413 C 377.743222 73.14683 373.402708 79.773324 359.985928 79.773324 C 346.572709 79.773324 345.426158 73.14683 346.72938 63.123413 L 357.895788 -22.059609 L 327.159682 -22.059609 L 315.875772 63.913892 C 312.482409 90.426988 321.676179 106.247252 358.212691 106.247252 Z M 471.824474 -22.059609 L 425.268105 104.000439 L 458.251023 104.000439 L 466.497642 78.473662 L 492.658227 78.473662 L 494.591696 104.000439 L 527.417942 104.000439 L 513.84449 -22.059609 Z M 488.157481 13.490585 L 490.881429 51.957006 L 475.374509 51.957006 Z M 624.226704 104.000439 L 627.620066 77.487344 L 583.150277 77.487344 L 596.250154 -22.059609 L 565.553216 -22.059609 L 549.063538 104.000439 Z M 624.226704 104.000439 " stroke="#ffffff" stroke-width="4.646431" stroke-opacity="1" stroke-miterlimit="4"/><g mask="url(#50832d7e4c)"><g transform="matrix(1, 0, 0, 1, 63, 181)"><g clip-path="url(#b6a49749fe)"><g clip-path="url(#3b2b2940d1)"><path stroke-linecap="butt" transform="matrix(1.09704, 0, 0, 1.09704, -16.325906, 31.462002)" fill="none" stroke-linejoin="miter" d="M 83.628527 104.000439 L 130.188456 -22.059609 L 97.201978 -22.059609 L 67.138848 68.450245 L 60.825698 -22.059609 L 28.03862 -22.059609 L 41.608511 104.000439 Z M 183.357076 -22.059609 L 152.620971 -22.059609 L 136.17046 104.000439 L 166.867398 104.000439 Z M 240.567109 53.260228 C 257.694155 55.510601 260.770615 60.520529 260.097639 66.83368 L 259.940968 68.450245 C 259.310721 74.606724 254.614136 79.773324 244.120704 79.773324 L 242.500578 79.773324 C 232.007146 79.773324 227.310561 74.250652 229.087359 60.363858 L 198.390421 60.363858 L 198.03435 62.966742 C 194.327644 92.203785 210.187075 106.247251 240.884013 106.247251 C 270.594631 106.247251 288.387532 93.663679 290.993977 69.910139 L 291.30732 66.990351 C 294.031268 42.923468 282.074382 32.230636 255.087711 28.52037 C 238.4378 26.273558 235.717413 21.893876 236.34766 15.10715 L 236.504331 13.490585 C 237.177307 7.216603 242.343906 2.203114 251.220773 2.203114 L 252.840899 2.203114 C 264.163977 2.203114 267.397108 8.989839 265.424471 23.193538 L 296.160576 23.193538 L 296.634152 19.3266 C 300.187747 -9.433308 287.087871 -24.309982 255.600454 -24.309982 C 224.07743 -24.309982 207.740863 -9.119965 205.333819 13.173681 L 204.981308 16.093469 C 202.414031 38.85713 213.580438 49.710194 240.567109 53.260228 Z M 358.209623 106.247251 C 394.746136 106.247251 406.190279 90.426988 409.583641 63.913892 L 420.90672 -22.059609 L 390.209783 -22.059609 L 379.043376 63.123413 C 377.740153 73.14683 373.403201 79.773324 359.986421 79.773324 C 346.573201 79.773324 345.426651 73.14683 346.729873 63.123413 L 357.89628 -22.059609 L 327.160175 -22.059609 L 315.876264 63.913892 C 312.482901 90.426988 321.676671 106.247251 358.209623 106.247251 Z M 471.824967 -22.059609 L 425.265037 104.000439 L 458.251515 104.000439 L 466.498135 78.473662 L 492.655159 78.473662 L 494.588628 104.000439 L 527.418434 104.000439 L 513.844983 -22.059609 Z M 488.157974 13.490585 L 490.881922 51.957006 L 475.375001 51.957006 Z M 624.223635 104.000439 L 627.616998 77.487344 L 583.15077 77.487344 L 596.250646 -22.059609 L 565.553709 -22.059609 L 549.06403 104.000439 Z M 624.223635 104.000439 " stroke="#ffffff" stroke-width="4.646431" stroke-opacity="1" stroke-miterlimit="4"/></g></g></g></g><g fill="#ff0000" fill-opacity="1"><g transform="translate(260.522869, 567.45541)"><g><path d="M 154.015625 -184.6875 C 153.796875 -183.132812 153.1875 -181.910156 152.1875 -181.015625 C 151.1875 -180.128906 149.910156 -179.6875 148.359375 -179.6875 L 86.34375 -179.6875 C 85.226562 -179.6875 84.671875 -179.128906 84.671875 -178.015625 L 80.671875 -145.34375 C 80.234375 -144.238281 80.679688 -143.6875 82.015625 -143.6875 L 114.34375 -143.6875 C 115.90625 -143.6875 117.070312 -143.238281 117.84375 -142.34375 C 118.625 -141.457031 118.90625 -140.238281 118.6875 -138.6875 L 113.34375 -95.015625 C 112.675781 -91.679688 110.789062 -90.015625 107.6875 -90.015625 L 75.34375 -90.015625 C 74.226562 -90.015625 73.671875 -89.457031 73.671875 -88.34375 L 63.34375 -5 C 63.125 -3.445312 62.507812 -2.222656 61.5 -1.328125 C 60.5 -0.441406 59.332031 0 58 0 L 6.671875 0 C 5.335938 0 4.28125 -0.441406 3.5 -1.328125 C 2.71875 -2.222656 2.441406 -3.445312 2.671875 -5 L 30 -228.359375 C 30.226562 -229.921875 30.84375 -231.144531 31.84375 -232.03125 C 32.84375 -232.914062 34.007812 -233.359375 35.34375 -233.359375 L 155.015625 -233.359375 C 156.578125 -233.359375 157.742188 -232.914062 158.515625 -232.03125 C 159.296875 -231.144531 159.578125 -229.921875 159.359375 -228.359375 Z M 154.015625 -184.6875 "/></g></g></g><g fill="#ff0000" fill-opacity="1"><g transform="translate(423.879682, 567.45541)"><g><path d="M 50 -232.359375 C 52 -233.023438 53.890625 -233.359375 55.671875 -233.359375 L 109.015625 -233.359375 C 110.347656 -233.359375 111.398438 -232.914062 112.171875 -232.03125 C 112.953125 -231.144531 113.234375 -229.921875 113.015625 -228.359375 L 85.671875 -5 C 85.453125 -3.445312 84.84375 -2.222656 83.84375 -1.328125 C 82.84375 -0.441406 81.675781 0 80.34375 0 L 29 0 C 27.664062 0 26.609375 -0.441406 25.828125 -1.328125 C 25.054688 -2.222656 24.78125 -3.445312 25 -5 L 45.671875 -174.6875 C 45.671875 -175.800781 45.226562 -176.359375 44.34375 -176.359375 L 22.671875 -176.359375 C 21.109375 -176.359375 19.9375 -176.800781 19.15625 -177.6875 C 18.382812 -178.570312 18.109375 -179.796875 18.328125 -181.359375 L 23 -220.03125 C 23.445312 -222.695312 25.003906 -224.582031 27.671875 -225.6875 Z M 50 -232.359375 "/></g></g></g><g fill="#00ffff" fill-opacity="1"><g transform="translate(287.323063, 561.268088)"><g><path d="M 154.015625 -184.6875 C 153.796875 -183.132812 153.1875 -181.910156 152.1875 -181.015625 C 151.1875 -180.128906 149.910156 -179.6875 148.359375 -179.6875 L 86.34375 -179.6875 C 85.226562 -179.6875 84.671875 -179.128906 84.671875 -178.015625 L 80.671875 -145.34375 C 80.234375 -144.238281 80.679688 -143.6875 82.015625 -143.6875 L 114.34375 -143.6875 C 115.90625 -143.6875 117.070312 -143.238281 117.84375 -142.34375 C 118.625 -141.457031 118.90625 -140.238281 118.6875 -138.6875 L 113.34375 -95.015625 C 112.675781 -91.679688 110.789062 -90.015625 107.6875 -90.015625 L 75.34375 -90.015625 C 74.226562 -90.015625 73.671875 -89.457031 73.671875 -88.34375 L 63.34375 -5 C 63.125 -3.445312 62.507812 -2.222656 61.5 -1.328125 C 60.5 -0.441406 59.332031 0 58 0 L 6.671875 0 C 5.335938 0 4.28125 -0.441406 3.5 -1.328125 C 2.71875 -2.222656 2.441406 -3.445312 2.671875 -5 L 30 -228.359375 C 30.226562 -229.921875 30.84375 -231.144531 31.84375 -232.03125 C 32.84375 -232.914062 34.007812 -233.359375 35.34375 -233.359375 L 155.015625 -233.359375 C 156.578125 -233.359375 157.742188 -232.914062 158.515625 -232.03125 C 159.296875 -231.144531 159.578125 -229.921875 159.359375 -228.359375 Z M 154.015625 -184.6875 "/></g></g></g><g fill="#00ffff" fill-opacity="1"><g transform="translate(450.679876, 561.268088)"><g><path d="M 50 -232.359375 C 52 -233.023438 53.890625 -233.359375 55.671875 -233.359375 L 109.015625 -233.359375 C 110.347656 -233.359375 111.398438 -232.914062 112.171875 -232.03125 C 112.953125 -231.144531 113.234375 -229.921875 113.015625 -228.359375 L 85.671875 -5 C 85.453125 -3.445312 84.84375 -2.222656 83.84375 -1.328125 C 82.84375 -0.441406 81.675781 0 80.34375 0 L 29 0 C 27.664062 0 26.609375 -0.441406 25.828125 -1.328125 C 25.054688 -2.222656 24.78125 -3.445312 25 -5 L 45.671875 -174.6875 C 45.671875 -175.800781 45.226562 -176.359375 44.34375 -176.359375 L 22.671875 -176.359375 C 21.109375 -176.359375 19.9375 -176.800781 19.15625 -177.6875 C 18.382812 -178.570312 18.109375 -179.796875 18.328125 -181.359375 L 23 -220.03125 C 23.445312 -222.695312 25.003906 -224.582031 27.671875 -225.6875 Z M 50 -232.359375 "/></g></g></g><g fill="#ffffff" fill-opacity="1"><g transform="translate(273.922966, 564.36175)"><g><path d="M 154.015625 -184.6875 C 153.796875 -183.132812 153.1875 -181.910156 152.1875 -181.015625 C 151.1875 -180.128906 149.910156 -179.6875 148.359375 -179.6875 L 86.34375 -179.6875 C 85.226562 -179.6875 84.671875 -179.128906 84.671875 -178.015625 L 80.671875 -145.34375 C 80.234375 -144.238281 80.679688 -143.6875 82.015625 -143.6875 L 114.34375 -143.6875 C 115.90625 -143.6875 117.070312 -143.238281 117.84375 -142.34375 C 118.625 -141.457031 118.90625 -140.238281 118.6875 -138.6875 L 113.34375 -95.015625 C 112.675781 -91.679688 110.789062 -90.015625 107.6875 -90.015625 L 75.34375 -90.015625 C 74.226562 -90.015625 73.671875 -89.457031 73.671875 -88.34375 L 63.34375 -5 C 63.125 -3.445312 62.507812 -2.222656 61.5 -1.328125 C 60.5 -0.441406 59.332031 0 58 0 L 6.671875 0 C 5.335938 0 4.28125 -0.441406 3.5 -1.328125 C 2.71875 -2.222656 2.441406 -3.445312 2.671875 -5 L 30 -228.359375 C 30.226562 -229.921875 30.84375 -231.144531 31.84375 -232.03125 C 32.84375 -232.914062 34.007812 -233.359375 35.34375 -233.359375 L 155.015625 -233.359375 C 156.578125 -233.359375 157.742188 -232.914062 158.515625 -232.03125 C 159.296875 -231.144531 159.578125 -229.921875 159.359375 -228.359375 Z M 154.015625 -184.6875 "/></g></g></g><g fill="#ffffff" fill-opacity="1"><g transform="translate(437.279779, 564.36175)"><g><path d="M 50 -232.359375 C 52 -233.023438 53.890625 -233.359375 55.671875 -233.359375 L 109.015625 -233.359375 C 110.347656 -233.359375 111.398438 -232.914062 112.171875 -232.03125 C 112.953125 -231.144531 113.234375 -229.921875 113.015625 -228.359375 L 85.671875 -5 C 85.453125 -3.445312 84.84375 -2.222656 83.84375 -1.328125 C 82.84375 -0.441406 81.675781 0 80.34375 0 L 29 0 C 27.664062 0 26.609375 -0.441406 25.828125 -1.328125 C 25.054688 -2.222656 24.78125 -3.445312 25 -5 L 45.671875 -174.6875 C 45.671875 -175.800781 45.226562 -176.359375 44.34375 -176.359375 L 22.671875 -176.359375 C 21.109375 -176.359375 19.9375 -176.800781 19.15625 -177.6875 C 18.382812 -178.570312 18.109375 -179.796875 18.328125 -181.359375 L 23 -220.03125 C 23.445312 -222.695312 25.003906 -224.582031 27.671875 -225.6875 Z M 50 -232.359375 "/></g></g></g><g mask="url(#046e6f41cf)"><g transform="matrix(1, 0, 0, 1, 69, 181)"><g clip-path="url(#b4718310bb)"><g clip-path="url(#e0f551bfde)"><path stroke-linecap="butt" transform="matrix(1.09704, 0, 0, 1.09704, -15.938861, 31.462002)" fill="none" stroke-linejoin="miter" d="M 83.631791 104.000439 L 130.18816 -22.059609 L 97.201681 -22.059609 L 67.138552 68.450245 L 60.825401 -22.059609 L 28.038323 -22.059609 L 41.611775 104.000439 Z M 183.356779 -22.059609 L 152.620674 -22.059609 L 136.170163 104.000439 L 166.867101 104.000439 Z M 240.570373 53.260228 C 257.693859 55.510601 260.770318 60.520529 260.100903 66.83368 L 259.940671 68.450245 C 259.310424 74.606724 254.613839 79.773324 244.120407 79.773324 L 242.503842 79.773324 C 232.006849 79.773324 227.310264 74.250652 229.087062 60.363858 L 198.390124 60.363858 L 198.034053 62.966742 C 194.327347 92.203785 210.186778 106.247251 240.883716 106.247251 C 270.594335 106.247251 288.387235 93.663679 290.99368 69.910139 L 291.307023 66.990351 C 294.030971 42.923468 282.077646 32.230636 255.087414 28.52037 C 238.437504 26.273558 235.717116 21.893876 236.347363 15.10715 L 236.504034 13.490585 C 237.17701 7.216603 242.34361 2.203114 251.220476 2.203114 L 252.840602 2.203114 C 264.163681 2.203114 267.400372 8.989839 265.424174 23.193538 L 296.16028 23.193538 L 296.633855 19.3266 C 300.18745 -9.433308 287.087574 -24.309982 255.600157 -24.309982 C 224.077134 -24.309982 207.740566 -9.119965 205.333522 13.173681 L 204.981011 16.093469 C 202.413734 38.85713 213.580141 49.710194 240.570373 53.260228 Z M 358.212887 106.247251 C 394.745839 106.247251 406.189982 90.426988 409.583345 63.913892 L 420.906423 -22.059609 L 390.209486 -22.059609 L 379.043079 63.123413 C 377.743417 73.14683 373.402904 79.773324 359.986124 79.773324 C 346.572905 79.773324 345.426354 73.14683 346.729576 63.123413 L 357.895983 -22.059609 L 327.159878 -22.059609 L 315.875967 63.913892 C 312.482604 90.426988 321.676374 106.247251 358.212887 106.247251 Z M 471.82467 -22.059609 L 425.268301 104.000439 L 458.251218 104.000439 L 466.497838 78.473662 L 492.658423 78.473662 L 494.588331 104.000439 L 527.418138 104.000439 L 513.844686 -22.059609 Z M 488.157677 13.490585 L 490.881625 51.957006 L 475.374704 51.957006 Z M 624.226899 104.000439 L 627.616701 77.487344 L 583.150473 77.487344 L 596.250349 -22.059609 L 565.553412 -22.059609 L 549.063733 104.000439 Z M 624.226899 104.000439 " stroke="#ffffff" stroke-width="4.646431" stroke-opacity="1" stroke-miterlimit="4"/></g></g></g></g></svg>